<?xml version="1.0" standalone="no"?>
<!DOCTYPE svg PUBLIC "-//W3C//DTD SVG 20010904//EN"
 "http://www.w3.org/TR/2001/REC-SVG-20010904/DTD/svg10.dtd">
<svg version="1.0" xmlns="http://www.w3.org/2000/svg"
 width="460.000000pt" height="460.000000pt" viewBox="0 0 460.000000 460.000000"
 preserveAspectRatio="xMidYMid meet">
<metadata>
Created by potrace 1.14, written by Peter Selinger 2001-2017
</metadata>
<g transform="translate(0.000000,460.000000) scale(0.100000,-0.100000)"
fill="#000000" stroke="none">
<path d="M0 4580 c0 -19 7 -20 195 -20 120 0 195 -4 195 -10 0 -5 -11 -17 -25
-26 -14 -9 -25 -20 -25 -25 0 -11 -23 -40 -67 -86 -18 -19 -33 -37 -33 -42 0
-5 -9 -11 -21 -14 -12 -3 -18 -10 -14 -17 4 -6 -5 -29 -20 -52 -15 -22 -28
-57 -29 -77 -1 -20 -9 -52 -18 -71 -10 -19 -19 -57 -20 -85 -2 -32 -7 -49 -15
-48 -9 2 -10 -11 -6 -46 7 -59 -3 -113 -18 -90 -6 10 -9 6 -9 -17 0 -17 -3
-34 -7 -38 -4 -3 -8 -14 -9 -23 -2 -9 -6 -28 -10 -42 -4 -14 -8 -29 -8 -33 -1
-3 -4 -10 -9 -14 -12 -12 -8 -34 9 -51 17 -17 15 -40 -8 -125 -7 -27 -16 -48
-20 -48 -5 0 -8 -26 -7 -57 1 -55 2 -56 11 -25 10 29 28 45 28 23 0 -19 -23
-71 -31 -71 -5 0 -9 -19 -9 -42 0 -40 0 -41 20 -23 26 23 26 5 0 -37 -19 -32
-20 -55 -20 -1640 l0 -1608 1799 0 1799 0 23 38 c13 20 47 87 77 147 30 61 58
112 63 115 4 3 24 42 44 85 20 44 59 127 87 185 28 58 70 146 94 195 23 50 52
115 64 145 11 30 29 66 40 80 l20 25 0 -30 c0 -16 -5 -47 -11 -69 -6 -21 -14
-59 -19 -85 -22 -119 -51 -238 -94 -374 -25 -81 -50 -176 -56 -210 -5 -34 -21
-98 -35 -142 -13 -44 -25 -86 -25 -92 0 -10 80 -13 365 -13 l365 0 0 2300 0
2300 -2300 0 c-2293 0 -2300 0 -2300 -20z m4422 -137 c-1 -65 -5 -146 -8 -181
-8 -87 -28 -81 -70 21 -17 43 -34 80 -38 84 -3 3 -6 12 -6 20 0 7 -11 31 -25
52 -34 55 -41 89 -20 97 13 5 14 9 3 15 -8 5 24 9 77 9 l90 0 -3 -117z m-4347
-768 c-10 -29 -14 -34 -15 -17 0 23 18 67 25 60 2 -2 -2 -22 -10 -43z m2019
-296 c-8 -16 -14 -35 -14 -44 0 -8 -7 -15 -15 -15 -8 0 -16 -10 -17 -22 0 -13
-2 -29 -2 -37 -1 -14 -84 -49 -120 -50 -11 -1 -34 -12 -53 -27 -27 -20 -32
-30 -27 -50 6 -21 3 -24 -24 -24 -17 0 -42 -5 -56 -12 -23 -10 -24 -12 -9 -23
13 -10 0 -9 -53 1 -118 23 -120 22 -152 -43 -15 -31 -32 -58 -39 -60 -20 -7
-80 61 -102 114 -15 38 -9 63 16 63 16 0 16 2 3 11 -11 8 -6 9 20 5 34 -6 36
-5 59 44 24 50 34 59 46 39 5 -7 14 -4 29 8 30 26 76 50 112 57 22 5 37 17 50
42 19 35 40 41 37 10 -1 -12 12 -23 35 -33 33 -14 39 -13 67 3 16 10 36 24 43
31 8 8 23 11 38 7 20 -5 26 -2 31 14 4 19 12 21 58 20 l54 -1 -15 -28z m78
-21 c-9 -9 -12 -7 -12 12 0 19 3 21 12 12 9 -9 9 -15 0 -24z m265 -60 c-3 -8
-6 -5 -6 6 -1 11 2 17 5 13 3 -3 4 -12 1 -19z m58 12 c-3 -5 -10 -10 -16 -10
-5 0 -9 5 -9 10 0 6 7 10 16 10 8 0 12 -4 9 -10z m65 -40 c0 -5 -2 -10 -4 -10
-3 0 -8 5 -11 10 -3 6 -1 10 4 10 6 0 11 -4 11 -10z m-1580 -51 c0 -6 -9 -7
-20 -4 -14 4 -20 2 -20 -9 0 -8 -4 -18 -10 -21 -6 -3 -10 5 -10 19 0 18 6 26
23 28 26 5 37 1 37 -13z m1316 -24 c14 -11 15 -14 4 -15 -26 0 -60 12 -60 21
0 14 34 10 56 -6z m-1466 -5 c0 -5 -5 -10 -11 -10 -5 0 -7 5 -4 10 3 6 8 10
11 10 2 0 4 -4 4 -10z m30 -30 c0 -5 17 -10 39 -10 22 0 44 -6 51 -15 7 -8 24
-15 39 -15 24 -1 24 -2 9 -14 -10 -7 -18 -18 -18 -24 0 -21 20 -21 150 7 20 4
45 5 55 1 11 -4 23 -3 26 1 3 5 18 10 34 11 18 2 40 14 56 32 28 32 54 28 43
-6 -4 -13 0 -24 14 -34 12 -8 22 -29 25 -51 3 -21 8 -47 11 -58 4 -12 -1 -33
-14 -53 l-20 -32 -38 19 c-21 11 -44 27 -51 35 -8 9 -20 16 -28 16 -8 0 -14 8
-13 18 3 23 -10 62 -21 62 -17 0 -59 -48 -59 -68 0 -11 -7 -27 -15 -36 -8 -8
-15 -19 -15 -24 0 -5 -18 -12 -40 -16 -37 -6 -40 -8 -40 -39 0 -30 -4 -34 -40
-43 -31 -9 -40 -8 -44 3 -3 7 -1 13 4 13 6 0 9 15 9 33 -1 23 -3 26 -6 10 -5
-26 -11 -28 -36 -9 -9 7 -28 11 -42 8 -25 -4 -55 12 -55 29 0 5 12 10 28 10
22 1 19 3 -15 12 -37 8 -43 14 -44 36 0 14 -2 35 -4 46 -13 68 -9 115 10 115
14 0 19 12 16 33 0 4 8 7 19 7 11 0 20 -4 20 -10z m1005 -99 c3 -6 -3 -15 -14
-20 -29 -16 -40 -13 -34 9 5 21 37 28 48 11z m1214 -399 c9 -16 11 -16 25 3
16 22 33 13 36 -20 4 -37 0 -45 -25 -55 -14 -5 -27 -20 -31 -35 -4 -17 -13
-25 -28 -25 -45 0 -66 -12 -66 -37 0 -18 -9 -28 -32 -38 -27 -12 -29 -14 -11
-15 30 0 20 -28 -13 -36 -13 -3 -26 -15 -29 -25 -4 -10 -12 -19 -19 -19 -7 0
-18 -11 -24 -25 -12 -26 -57 -36 -64 -13 -3 7 -13 3 -27 -11 -16 -16 -20 -26
-12 -30 12 -8 5 -41 -9 -41 -4 0 -11 -10 -15 -22 -6 -18 -8 -20 -12 -6 -6 23
-90 29 -111 8 -14 -13 -14 -15 0 -18 12 -2 15 -12 11 -42 -5 -33 -2 -40 21
-55 34 -22 33 -31 -6 -56 -18 -12 -25 -19 -15 -15 14 4 17 -1 17 -25 0 -20 -4
-28 -12 -23 -6 4 -17 -2 -25 -12 -13 -18 -15 -18 -27 -1 -16 21 -32 22 -43 3
-4 -8 -17 -16 -28 -19 -17 -4 -15 -6 13 -18 48 -20 39 -32 -20 -24 -62 8 -68
11 -68 30 0 8 -12 25 -26 38 -19 18 -35 24 -60 22 -23 -2 -34 1 -34 10 0 14
-21 25 -51 25 -22 0 -26 25 -4 34 8 3 15 10 15 16 0 5 -7 10 -15 10 -12 0 -15
12 -13 53 1 50 2 50 5 10 3 -34 8 -43 23 -43 10 0 25 -2 32 -5 12 -5 13 4 8
47 -4 29 -6 56 -4 59 2 3 18 4 36 2 25 -3 29 -2 18 6 -8 6 -24 11 -35 11 -19
1 -19 1 -2 14 20 16 22 26 4 26 -7 0 -14 14 -15 32 -2 18 -8 36 -15 40 -8 5
-7 8 6 8 9 0 17 5 17 10 0 6 5 10 11 10 5 0 7 -4 4 -10 -3 -5 1 -10 9 -10 9 0
13 6 10 14 -6 16 17 27 47 21 33 -7 32 -10 -12 -29 -30 -14 -38 -21 -28 -27
22 -14 52 -10 83 10 17 11 33 18 38 15 13 -8 9 10 -8 34 -8 12 -21 22 -29 22
-8 0 -17 5 -20 10 -4 6 5 10 20 10 19 0 29 -6 32 -20 4 -16 8 -18 19 -9 8 6
14 18 14 27 0 8 3 12 7 9 3 -4 12 -2 20 5 20 16 29 1 15 -23 -10 -16 -11 -24
-1 -35 16 -19 64 -14 64 6 0 8 4 20 8 27 5 7 -1 13 -15 15 l-23 3 23 13 c15 9
27 10 35 4 7 -6 21 -12 32 -15 15 -3 12 -5 -10 -7 -16 -1 -24 -4 -17 -7 6 -2
12 -15 12 -28 0 -28 19 -36 57 -26 21 5 29 14 31 34 2 16 -2 27 -9 27 -9 0 -9
3 0 14 14 17 -4 26 -57 27 -51 1 -16 14 61 23 39 5 57 12 57 22 0 8 8 14 19
14 10 0 26 11 35 25 10 15 22 22 31 19 8 -4 22 -3 31 0 14 5 14 8 -1 23 -14
13 -18 14 -25 2 -5 -7 -12 -10 -16 -6 -4 4 2 17 14 30 12 13 22 27 22 33 0 5
36 10 80 11 66 3 81 0 89 -15z m-1519 -51 c0 -30 11 -51 26 -51 8 0 14 -7 14
-15 0 -8 9 -24 21 -36 l21 -21 -23 -24 c-13 -14 -29 -22 -36 -20 -7 3 -10 -1
-6 -10 3 -7 0 -14 -6 -14 -6 0 -11 -7 -11 -16 0 -9 -9 -18 -20 -21 -12 -3 -23
-17 -26 -32 -3 -14 -12 -43 -19 -65 -16 -43 -13 -56 14 -56 31 0 84 -104 58
-113 -9 -3 -8 -8 2 -20 20 -25 31 -21 31 14 0 17 4 28 10 24 6 -3 10 -24 10
-45 0 -28 -5 -42 -19 -50 -11 -6 -22 -25 -26 -48 -8 -49 -41 -53 -54 -7 -5 16
-10 22 -10 13 -1 -10 -5 -18 -10 -18 -14 0 -20 26 -26 115 -9 130 -10 205 -3
205 3 0 9 14 13 30 4 17 12 30 18 30 7 0 6 4 -3 10 -12 7 -12 13 -4 27 8 13 8
23 1 35 -8 12 -6 27 8 57 14 32 15 43 6 55 -7 8 -10 24 -6 36 4 13 2 20 -7 20
-16 1 32 29 50 30 6 0 12 -9 12 -19z m120 -121 c0 -5 -5 -10 -11 -10 -5 0 -7
5 -4 10 3 6 8 10 11 10 2 0 4 -4 4 -10z m586 -121 c3 -6 2 -14 -3 -18 -12 -8
-25 -71 -15 -71 4 0 8 -9 9 -20 1 -11 -2 -18 -8 -15 -5 4 -9 1 -9 -6 0 -7 -13
0 -30 16 -23 22 -30 38 -30 67 0 36 -1 37 -30 32 -18 -4 -30 -2 -30 4 0 6 27
13 63 15 34 2 65 4 69 5 4 1 10 -3 14 -9z m-686 -18 c0 -5 -7 -14 -15 -21 -13
-10 -15 -9 -15 9 0 12 6 21 15 21 8 0 15 -4 15 -9z m164 -88 c3 -10 9 -24 12
-32 5 -10 -1 -12 -25 -6 -38 8 -42 -10 -5 -19 23 -6 26 -10 20 -39 -11 -54
-56 -77 -56 -29 0 13 -2 14 -9 4 -5 -8 -6 8 -3 37 3 34 1 51 -7 51 -15 0 -14
23 1 38 18 18 65 15 72 -5z m-384 -38 c0 -8 -4 -15 -10 -15 -5 0 -9 -3 -8 -7
1 -5 -1 -18 -5 -30 -5 -13 -2 -36 7 -58 9 -21 14 -41 11 -45 -3 -5 -7 -47 -10
-94 -4 -83 -24 -153 -33 -113 -2 9 -10 17 -19 17 -12 0 -14 -8 -10 -37 4 -20
12 -40 19 -45 10 -6 8 -8 -4 -8 -13 0 -18 -8 -18 -30 0 -41 -18 -76 -45 -88
-13 -6 -26 -20 -30 -31 -8 -25 -59 -81 -74 -81 -6 0 -11 18 -11 40 0 51 -17
52 -23 3 -4 -37 -4 -37 -2 2 1 22 8 55 16 74 11 27 11 35 2 38 -7 3 -13 21
-13 40 0 35 0 36 -20 18 -20 -18 -20 -17 -20 50 0 38 -5 83 -12 101 -9 25 -8
39 2 63 7 17 16 31 21 31 15 0 22 -51 13 -94 -11 -49 -7 -126 7 -126 15 0 12
238 -3 243 -7 2 0 2 15 0 21 -4 33 1 48 21 11 14 29 26 40 26 10 0 19 7 19 15
0 8 6 15 14 15 7 0 24 21 37 46 17 33 32 47 52 51 15 3 27 9 27 14 0 5 5 9 10
9 6 0 10 -7 10 -15z m1360 -135 c0 -32 -1 -33 -24 -24 -16 6 -22 35 -9 47 16
17 33 5 33 -23z m-1842 -55 c2 -25 -11 -34 -22 -16 -7 11 3 41 13 41 4 0 8
-11 9 -25z m829 9 c-3 -3 -12 -4 -19 -1 -8 3 -5 6 6 6 11 1 17 -2 13 -5z m983
-99 c7 -8 16 -15 21 -15 5 0 9 7 9 15 0 8 4 15 9 15 6 0 6 -12 0 -30 -9 -26
-13 -28 -30 -17 -17 10 -23 9 -39 -11 -10 -12 -20 -28 -23 -35 -2 -7 -8 -8
-13 -3 -5 5 -4 11 4 13 6 3 12 20 12 38 0 29 9 41 31 44 4 1 12 -6 19 -14z
m-877 -77 c34 -20 53 -54 23 -42 -7 3 -16 -2 -19 -10 -11 -28 -45 -19 -52 14
-11 48 6 61 48 38z m-313 -55 c8 -3 33 -6 54 -7 22 -1 41 -7 43 -13 2 -6 24
-17 49 -24 53 -16 59 -42 14 -58 -16 -5 -30 -15 -30 -20 0 -6 -13 -11 -30 -11
-25 0 -30 4 -30 25 0 14 -4 25 -9 25 -5 0 -16 -11 -25 -25 -13 -20 -24 -25
-59 -25 -58 1 -87 26 -87 79 0 60 39 79 110 54z m-426 -158 c3 -8 1 -15 -4
-15 -6 0 -10 7 -10 15 0 8 2 15 4 15 2 0 6 -7 10 -15z m286 -125 c0 -5 -2 -10
-4 -10 -3 0 -8 5 -11 10 -3 6 -1 10 4 10 6 0 11 -4 11 -10z"/>
<path d="M2450 2270 c0 -5 4 -10 9 -10 6 0 13 5 16 10 3 6 -1 10 -9 10 -9 0
-16 -4 -16 -10z"/>
<path d="M2720 2260 c0 -11 5 -20 10 -20 6 0 10 9 10 20 0 11 -4 20 -10 20 -5
0 -10 -9 -10 -20z"/>
<path d="M2480 2245 c0 -10 7 -15 18 -13 21 4 19 22 -2 26 -10 2 -16 -3 -16
-13z"/>
<path d="M1690 2190 c0 -5 4 -10 9 -10 6 0 13 5 16 10 3 6 -1 10 -9 10 -9 0
-16 -4 -16 -10z"/>
<path d="M1122 1940 c0 -14 2 -19 5 -12 2 6 2 18 0 25 -3 6 -5 1 -5 -13z"/>
<path d="M14 3775 c-11 -27 2 -37 14 -11 7 16 8 26 1 26 -5 0 -12 -7 -15 -15z"/>
</g>
</svg>
