<!--?xml version="1.0" encoding="UTF-8" standalone="no"?-->
<svg xmlns:dc="http://purl.org/dc/elements/1.1/" xmlns:cc="http://creativecommons.org/ns#" xmlns:rdf="http://www.w3.org/1999/02/22-rdf-syntax-ns#" xmlns:svg="http://www.w3.org/2000/svg" xmlns="http://www.w3.org/2000/svg" id="svg8" version="1.1" viewBox="0 0 210 297" height="297mm" width="210mm" style="" class="">
  <defs id="defs2"></defs>
  <metadata id="metadata5">
    <rdf:rdf>
      <cc:work rdf:about="">
        <dc:format>image/svg+xml</dc:format>
        <dc:type rdf:resource="http://purl.org/dc/dcmitype/StillImage"></dc:type>
        <dc:title></dc:title>
      </cc:work>
    </rdf:rdf>
  </metadata>
  <g id="layer1">
    <path id="path32" d="m 78.116156,119.42095 c 0.419324,0.83871 0.909759,1.64526 1.25797,2.51579 0.130637,0.3265 0,3.20212 0,3.77388 0,0.20985 -0.148239,0.4809 0,0.62921 0.148276,0.14796 0.480729,-0.14831 0.629005,0 0.14824,0.14796 0,0.41936 0,0.62886 0,0.2095 0,0.41936 0,0.62886 0,0.23122 -0.02547,2.49069 0,2.51616 0.14824,0.14831 0.480726,-0.14831 0.628966,0 0.148275,0.14831 0,0.41936 0,0.62886 0,0.20986 0,0.41936 0,0.62886 0,1.25807 0,2.51615 0,3.77423 0,0.2095 -0.14824,0.48055 0,0.62886 0.148275,0.14831 0.480728,-0.14831 0.629004,0 0.14824,0.14831 0,0.41936 0,0.62886 0,0.56233 -0.100289,2.94443 0,3.14501 0.132599,0.26534 0.496369,0.36388 0.628966,0.62886 0.113656,0.22751 0,2.70771 0,3.14502 0,0.20986 -0.14824,0.4809 0,0.62886 0.148276,0.14831 0.480728,-0.14796 0.629004,0 0.14824,0.14831 0,0.41936 0,0.62922 0,0.43731 -0.113755,2.91751 0,3.14501 0.132599,0.26498 0.496369,0.36352 0.628966,0.62886 0.187521,0.3749 -0.187519,0.88282 0,1.25808 0.132599,0.26498 0.496405,0.36352 0.629004,0.62886 0.251579,0.50323 -0.251615,1.3837 0,1.88693 0.132599,0.26535 0.496369,0.36388 0.628966,0.62887 0.124691,0.24937 -0.128575,1.75857 0,1.88693 0.148278,0.14831 0.480728,-0.14795 0.629004,0 0.314465,0.31479 -0.314501,1.57251 0,1.88694 0.14824,0.14831 0.480726,-0.14795 0.628966,0 0.151343,0.15166 -0.151341,2.36485 0,2.51616 0.148278,0.14831 0.480728,-0.14832 0.629004,0 0.314465,0.31442 -0.314501,1.5725 0,1.88693 0.14824,0.14831 0.480726,-0.14831 0.628968,0 0.151341,0.15131 -0.151343,2.36449 0,2.5158 0.148276,0.14831 0.480726,-0.14831 0.629002,0 0.19475,0.19504 -0.194786,2.95034 0,3.14501 0.14824,0.14832 0.480726,-0.14831 0.628968,0 0.148276,0.14832 0,0.41936 0,0.62886 0,0.20986 0,0.41936 0,0.62922 0,1.46758 0,2.93516 0,4.40273 0,0.20986 -0.148242,0.48091 0,0.62922 0.148276,0.14796 0.480726,-0.14831 0.629002,0 0.14824,0.14796 -0.148276,0.48055 0,0.62886 0.14824,0.14831 0.480726,-0.14831 0.628969,0 0.296515,0.29663 -0.296519,0.96146 0,1.25808 0.973171,0.97282 0.629001,-1.68 0.629001,-1.88694 0,-1.67743 -0.209678,0.2095 0.628969,-0.62922 0.296515,-0.29626 -0.187522,-0.88282 0,-1.25766 0.132596,-0.26539 0.496402,-0.36393 0.629001,-0.62927 0.170588,-0.3411 -0.172109,-2.34362 0,-2.5158 0.14824,-0.14831 0.480729,0.14831 0.628969,0 0.3145,-0.31443 -0.314504,-1.5725 0,-1.88694 0.148276,-0.14831 0.480725,0.14832 0.629001,0 0.17211,-0.17218 -0.170621,-2.17469 0,-2.51615 0.1326,-0.26498 0.496369,-0.36352 0.628969,-0.62886 0.187518,-0.37487 -0.296516,-0.96145 0,-1.25808 0.148276,-0.14831 0.480725,0.14831 0.629001,0 0.314465,-0.31443 -0.3145,-1.57251 0,-1.88694 0.14824,-0.14831 0.480729,0.14832 0.628969,0 0.314501,-0.31443 -0.314504,-1.5725 0,-1.88693 0.148276,-0.14831 0.480725,0.14831 0.629001,0 0.14824,-0.14831 -0.09372,-0.44141 0,-0.62886 0.1326,-0.26534 0.496369,-0.36388 0.628969,-0.62922 0.09372,-0.18745 -0.09372,-0.44141 0,-0.62886 0.132596,-0.26534 0.496402,-0.36388 0.629001,-0.62886 0.187522,-0.37526 -0.296515,-0.96145 0,-1.25808 0.14824,-0.14831 0.480729,0.14832 0.628969,0 0.296516,-0.29662 -0.296518,-0.96145 0,-1.25807 0.148276,-0.14834 0.480726,0.14831 0.629002,0 0.296479,-0.29627 -0.187522,-0.88283 0,-1.25772 0.132599,-0.26535 0.496369,-0.36388 0.628968,-0.62922 0.187521,-0.3749 -0.296487,-0.96146 0,-1.25772 0.148276,-0.14831 0.480726,0.14795 0.629,0 0.194744,-0.19504 -0.194784,-2.95034 0,-3.14502 0.148242,-0.14831 0.480665,0.14832 0.628917,0 0.148267,-0.14831 -0.09388,-0.44141 0,-0.62922 0.132751,-0.26498 0.496316,-0.36351 0.629163,-0.62886 0.0941,-0.18744 -0.0941,-0.4414 0,-0.62885 0.13249,-0.26535 0.49637,-0.36388 0.62886,-0.62922 0.25162,-0.50287 -0.25162,-1.38371 0,-1.88694 0.13249,-0.26498 0.49637,-0.36352 0.62886,-0.62886 0.18781,-0.3749 -0.29627,-0.96145 0,-1.25808 0.14831,-0.14791 0.48091,0.14831 0.62922,0 0.29626,-0.29626 -0.29663,-0.96145 0,-1.25772 0.14831,-0.14831 0.48054,0.14796 0.62886,0 0.31442,-0.31478 -0.31443,-1.5725 0,-1.88693 0.14831,-0.14831 0.4809,0.14795 0.62886,0 0.29662,-0.29663 -0.29627,-0.96146 0,-1.25808 0.14831,-0.14831 0.4809,0.14831 0.62921,0 0.14832,-0.14831 -0.0941,-0.44141 0,-0.62886 0.1325,-0.26534 0.49637,-0.36388 0.62886,-0.62922 0.18745,-0.3749 -0.18745,-0.88282 0,-1.25808 0.1325,-0.26498 0.49637,-0.36351 0.62886,-0.62886 0.18781,-0.37489 -0.29626,-0.96145 0,-1.25807 0.14831,-0.14796 0.48091,0.14831 0.62922,0 0.31443,-0.31443 -0.31443,-1.57215 0,-1.88694 0.14831,-0.14795 0.48055,0.14831 0.62886,0 0.29662,-0.29626 -0.29624,-0.96145 0,-1.25772 0.14831,-0.14831 0.48091,0.14831 0.62922,0 0.31443,-0.31482 -0.31479,-1.57251 0,-1.88694 0.14795,-0.14831 0.48055,0.14796 0.62886,0 0.29662,-0.29662 -0.29663,-0.96145 0,-1.25807 0.14831,-0.14832 0.48055,0.14831 0.62886,0 0.29662,-0.29663 -0.29627,-0.96146 0,-1.25808 0.14831,-0.14831 0.4809,0.14831 0.62922,0 0.12836,-0.12836 -0.12469,-1.63756 0,-1.88694 0.13249,-0.26498 0.49636,-0.36388 0.62886,-0.62886 0.0941,-0.18745 -0.14832,-0.4809 0,-0.62922 0.14831,-0.14795 0.48054,0.14832 0.62885,0 0.29663,-0.29626 -0.29626,-0.96145 0,-1.25771 0.14832,-0.14832 0.48091,-0.14832 0.62922,0 0.14796,0.14831 -0.14831,0.48054 0,0.62885 0.14796,0.14832 0.48055,-0.14831 0.62886,0 0.31443,0.31443 -0.31443,1.57251 0,1.88694 0.14831,0.14831 0.48096,-0.14831 0.62886,0 0.14831,0.14831 0,0.41936 0,0.62922 0,1.67708 0,3.35451 0,5.03159 0,0.15268 -0.0208,1.86687 0,1.88694 0.14831,0.14831 0.48091,-0.14795 0.62922,0 0.1479,0.14831 0,0.41936 0,0.62922 0,0.2095 0,0.41936 0,0.62886 0,1.88693 0,3.77387 0,5.66081 0,1.25808 0,2.51615 0,3.77387 0,0.20986 0.1479,0.48091 0,0.62922 -0.14831,0.14831 -0.48091,-0.14831 -0.62922,0 -0.1479,0.14831 0,0.41936 0,0.62886 0,1.46758 0,2.93516 0,4.40273 0,3.14502 0,6.29003 0,9.43505 0,0.15232 0.0208,1.86651 0,1.88694 -0.1479,0.14831 -0.48055,-0.14831 -0.62886,0 -0.0208,0.0208 0,1.73426 0,1.88694 0,1.88693 0,3.77387 0,5.66081 0,0.2095 0,0.41935 0,0.62886 0,0.20985 0.14831,0.4809 0,0.62921 -0.14831,0.14832 -0.4809,-0.14831 -0.62886,0 -0.0208,0.0208 0,1.73426 0,1.88694 0,2.5158 0,5.03195 0,7.54775 0,0.2095 0,0.41936 0,0.62886 0,0.20986 -0.14831,0.48091 0,0.62922 0.14796,0.14795 0.41936,0 0.62886,0 0.2095,0 0.41936,0 0.62886,0 0.44584,0 3.61155,0.0799 3.77388,0 0.26534,-0.13285 0.36387,-0.49637 0.62921,-0.62922 0.18745,-0.0941 0.41936,0 0.62886,0 0.20986,0 0.41936,0 0.62886,0 1.46794,0 2.93552,0 4.4031,0 0.2095,0 0.48054,0.14831 0.62886,0 0.14831,-0.14831 -0.14832,-0.48055 0,-0.62886 0.0208,-0.0208 1.73461,0 1.88693,0 3.56438,0 7.12875,0 10.69277,0 3.56437,0 7.12875,0 10.69276,0 0.15268,0 1.86687,0.0208 1.88694,0 0.14831,-0.14831 -0.14831,-0.48091 0,-0.62886 0.14831,-0.14831 0.4809,0.14795 0.62922,0 0.31443,-0.31479 -0.31479,-1.57251 0,-1.88694 0.14795,-0.14831 0.48054,0.14796 0.62886,0 0.14831,-0.14831 -0.0941,-0.44177 0,-0.62922 0.13249,-0.26498 0.49637,-0.36387 0.62885,-0.62885 0.0941,-0.18745 -0.14833,-0.48091 0,-0.62881 0.14832,-0.14837 0.48091,0.1479 0.62922,0 0.14832,-0.14837 0,-0.41941 0,-0.62927 0,-0.29668 0.0278,-3.11647 0,-3.14502 -0.14831,-0.14795 -0.4809,0.14831 -0.62922,0 -0.31442,-0.31443 0.31439,-1.57214 0,-1.88693 -0.14833,-0.14793 -0.48054,0.14831 -0.62885,0 -0.14832,-0.14793 0.0941,-0.44142 0,-0.62886 -0.1325,-0.26534 -0.49637,-0.36388 -0.62886,-0.62886 -0.12469,-0.24938 0.12836,-1.75858 0,-1.88694 -0.14832,-0.14831 -0.44139,0.0941 -0.62922,0 -2.61775,-1.30887 0.6726,0.0441 -0.62886,-1.25808 -0.14831,-0.14831 -0.48091,0.14831 -0.62886,0 -0.14831,-0.14831 0.14795,-0.4809 0,-0.62886 -0.14831,-0.14831 -0.48091,0.14796 -0.62922,0 -0.14831,-0.14831 0.14831,-0.4809 0,-0.62922 -0.14831,-0.14831 -0.48055,0.14832 -0.62886,0 -0.14831,-0.14831 0.14831,-0.48054 0,-0.62885 -0.31443,-0.31444 -1.5725,0.31442 -1.88694,0 -0.14831,-0.14832 0.14832,-0.48091 0,-0.62922 -0.0208,-0.0208 -1.73461,0 -1.88693,0 -0.20986,0 -0.41936,0 -0.62922,0 -0.2095,0 -0.48055,0.14831 -0.62886,0 -0.14831,-0.14796 0.14831,-0.48055 0,-0.62886 -0.14831,-0.14831 -0.41936,0 -0.62886,0 -0.29667,0 -3.11647,-0.0278 -3.14501,0 -0.14832,0.14831 0.14831,0.4809 0,0.62886 -0.14832,0.14831 -0.48091,-0.14796 -0.62886,0 -0.14832,0.14831 0.14795,0.4809 0,0.62922 -0.14832,0.14831 -0.48091,-0.14832 -0.62922,0 -0.14831,0.14831 0.0941,0.4414 0,0.62885 -0.13249,0.26535 -0.49637,0.36388 -0.62886,0.62922 -0.0941,0.18745 0.14831,0.48055 0,0.62886 -0.14831,0.14831 -0.48091,-0.14831 -0.62886,0 -0.29662,0.29663 0.29626,0.96146 0,1.25808 -0.14831,0.14795 -0.48091,-0.14831 -0.62922,0 -0.29626,0.29626 0.29662,0.96145 0,1.25772 -0.14831,0.14831 -0.48055,-0.14831 -0.62886,0 -0.29662,0.29662 0.29663,0.96145 0,1.25808 -0.14831,0.14831 -0.48091,-0.14832 -0.62886,0 -0.15167,0.1513 0.15131,2.36448 0,2.51579 -0.14831,0.14831 -0.4809,-0.14795 -0.62922,0 -0.14831,0.14831 0,0.41936 0,0.62922 0,0.2095 0,0.41936 0,0.62886 0,0.20986 0,0.41936 0,0.62886 0,0.20986 0.14832,0.48091 0,0.62922 -0.14831,0.14831 -0.48054,-0.14831 -0.62886,0 -0.31443,0.31443 0.31443,1.57251 0,1.88694 -0.14831,0.14831 -0.4809,-0.14832 -0.62921,0 -0.19469,0.19467 0.19503,2.94997 0,3.14501 -0.14796,0.14795 -0.48055,-0.14831 -0.62886,0 -0.15131,0.15131 0.1513,2.36449 0,2.5158 -0.14832,0.14831 -0.48055,-0.14832 -0.62886,0 -0.14831,0.14831 0,0.41936 0,0.62886 0,0.20985 0,0.41936 0,0.62921 0,2.3063 0,4.6126 0,6.91889 0,1.67708 0,3.35452 0,5.0316 0,0.20986 -0.14831,0.48091 0,0.62922 0.14831,0.14831 0.48054,-0.14831 0.62886,0 0.31442,0.31443 -0.31443,1.5725 0,1.88693 0.14831,0.14831 0.4809,-0.14831 0.62886,0 0.14831,0.14831 -0.14796,0.48055 0,0.62886 0.14831,0.14832 0.4809,-0.14831 0.62921,0 0.14832,0.14832 -0.14831,0.48091 0,0.62886 0.14832,0.14831 0.48055,-0.14795 0.62886,0 0.14832,0.14831 -0.14831,0.48091 0,0.62922 0.14832,0.14831 0.48091,-0.14831 0.62922,0 0.14795,0.14831 -0.14831,0.48055 0,0.62886 0.14795,0.14831 0.48055,-0.14831 0.62886,0 0.14831,0.14831 -0.14831,0.48091 0,0.62926 0.14831,0.14791 0.48055,-0.14835 0.62886,0 0.14831,0.14791 -0.14831,0.48051 0,0.62882 0.14831,0.14831 0.44141,-0.0941 0.62922,0 0.26498,0.13249 0.36352,0.49637 0.62886,0.62886 0.43438,0.21737 2.92426,-0.22076 3.14501,0 0.14832,0.14831 -0.14831,0.4809 0,0.62922 0.14832,0.14795 0.41936,0 0.62886,0 0.2095,0 0.41936,0 0.62886,0 1.67744,0 3.35488,0 5.03195,0 0.20986,0 0.41936,0 0.62922,0 0.2095,0 0.48055,0.14795 0.62886,0 0.14831,-0.14832 -0.14831,-0.48091 0,-0.62922 0.31443,-0.31443 1.57251,0.31443 1.88694,0 0.14831,-0.14831 -0.14831,-0.48055 0,-0.62886 0.29662,-0.29663 0.88282,0.18745 1.25808,0 0.26498,-0.13249 0.36351,-0.49637 0.62886,-0.62882 0.18745,-0.0941 0.48052,0.14791 0.62885,0 0.14832,-0.14835 -0.14833,-0.48095 0,-0.62926 0.14832,-0.14831 0.44142,0.0941 0.62922,0 0.26498,-0.13249 0.36352,-0.49637 0.62886,-0.62886 0.18745,-0.0941 0.48091,0.14831 0.62886,0 0.14831,-0.14831 -0.14795,-0.48091 0,-0.62922 0.14831,-0.14795 0.44177,0.0941 0.62922,0 0.26498,-0.13249 0.36352,-0.49637 0.62886,-0.62886 0.18745,-0.0941 0.48091,0.14832 0.62886,0 0.14831,-0.14831 -0.14795,-0.48055 0,-0.62886 0.14831,-0.14831 0.48091,0.14831 0.62922,0 0.14831,-0.14831 -0.14831,-0.4809 0,-0.62921 0.14831,-0.14796 0.48054,0.14831 0.62886,0 0.14831,-0.14796 -0.14832,-0.48055 0,-0.62887 0.29662,-0.29662 0.96145,0.29663 1.25807,0 0.14832,-0.14831 -0.14831,-0.48054 0,-0.62885 0.14832,-0.14831 0.48055,0.14831 0.62886,0 0.14832,-0.14831 -0.14831,-0.48091 0,-0.62922 0.14832,-0.14794 0.44142,0.0941 0.62922,0 0.26498,-0.13249 0.36352,-0.49637 0.62886,-0.62886 0.18745,-0.0941 0.48055,0.14831 0.62886,0 0.14831,-0.14831 -0.0941,-0.44141 0,-0.62886 0.13285,-0.26534 0.41936,-0.41936 0.62922,-0.62922 0.2095,-0.2095 0.36352,-0.49637 0.62886,-0.62886 0.18745,-0.0941 0.48055,0.14831 0.62886,0 0.14831,-0.14831 -0.0941,-0.44141 0,-0.62886 1.30887,-2.61774 -0.0441,0.67224 1.25808,-0.62922 0.14831,-0.14831 -0.14832,-0.48054 0,-0.62886 0.14831,-0.14831 0.48093,0.14832 0.62886,0 0.29662,-0.29662 -0.29627,-0.96145 0,-1.25807 0.14831,-0.14832 0.44141,0.0941 0.62921,0 0.26499,-0.13249 0.36352,-0.49637 0.62887,-0.62886 0.18744,-0.0941 0.4809,0.14831 0.62885,0 0.29663,-0.29663 -0.29626,-0.96146 0,-1.25808 0.14831,-0.14831 0.48091,0.14831 0.62922,0 0.14832,-0.14831 -0.14831,-0.48055 0,-0.62886 0.14832,-0.14831 0.48055,0.14831 0.62886,0 0.14831,-0.14831 -0.14831,-0.48091 0,-0.62922 0.14831,-0.14795 0.48091,0.14831 0.62886,0 0.14831,-0.14795 -0.14795,-0.48055 0,-0.62886 0.14831,-0.14831 0.48091,0.14831 0.62922,0 0.29626,-0.29662 -0.29663,-0.96145 0,-1.25808 1.30146,-1.3011 -0.0504,1.98889 1.25771,-0.62886 0.18782,-0.37489 -0.29626,-0.96145 0,-1.25807 0.14832,-0.14835 0.48092,0.14831 0.62923,0 0.14831,-0.14835 0,-0.41936 0,-0.62886 0,-1.46758 0,-2.93516 0,-4.40274 0,-1.67743 -0.20986,0.2095 0.62885,-0.62922 0.14832,-0.14831 0,-0.41936 0,-0.62885 0,-1.25808 0,-2.51616 0,-3.77388 0,-0.20986 0,-0.41936 0,-0.62922 0,-0.2095 0.14832,-0.48054 0,-0.62886 -0.14831,-0.14831 -0.48054,0.14832 -0.62885,0 -0.14831,-0.14831 0,-0.41936 0,-0.62886 0,-1.25807 0,-2.51615 0,-3.77387 0,-0.20986 0.14831,-0.48091 0,-0.62922 -0.14831,-0.14831 -0.48091,0.14831 -0.62923,0 -0.0278,-0.0278 0,-2.84834 0,-3.14501 0,-0.2095 0.14832,-0.48055 0,-0.62886 -0.14795,-0.14831 -0.48054,0.14831 -0.62885,0 -0.14831,-0.14831 0,-0.41936 0,-0.62886 0,-0.20986 0,-0.41936 0,-0.62922 0,-0.2095 0,-0.419 0,-0.62886 0,-0.2095 0.14831,-0.48055 0,-0.62886 -0.14831,-0.14831 -0.48055,0.14831 -0.62886,0 -0.31443,-0.31443 0.31443,-1.57251 0,-1.88694 -0.14831,-0.14831 -0.48091,0.14831 -0.62922,0 -0.29626,-0.29662 0.18781,-0.88318 0,-1.25808 -0.13249,-0.26534 -0.49637,-0.36387 -0.62886,-0.62885 -0.12469,-0.24938 0.12872,-1.75858 0,-1.88694 -0.14831,-0.14831 -0.48054,0.14795 -0.62886,0 -0.14831,-0.14831 0.14832,-0.48091 0,-0.62922 -0.14831,-0.14831 -0.48091,0.14831 -0.62922,0 -0.29626,-0.29627 0.29663,-0.96145 0,-1.25772 -0.14795,-0.14831 -0.48054,0.14796 -0.62885,0 -0.29663,-0.29662 0.29662,-0.96185 0,-1.25808 -0.14832,-0.14831 -0.48055,0.14832 -0.62887,0 -0.29662,-0.29662 0.18745,-0.88282 0,-1.25808 -0.13285,-0.26498 -0.49636,-0.36387 -0.62921,-0.62885 -0.0941,-0.18745 0.14831,-0.48091 0,-0.62922 -0.14793,-0.14796 -0.48055,0.14831 -0.62886,0 -0.29663,-0.29627 0.29662,-0.96146 0,-1.25772 -0.14832,-0.14831 -0.48091,0.14831 -0.62886,0 -0.14831,-0.14831 0.0941,-0.44141 0,-0.62922 -0.13285,-0.26498 -0.49637,-0.36352 -0.62922,-0.62886 -0.18745,-0.3749 0.29662,-0.96145 0,-1.25808 -0.14831,-0.14791 -0.48055,0.14831 -0.62886,0 -0.29663,-0.29626 0.18745,-0.88282 0,-1.25772 -0.13249,-0.26534 -0.49637,-0.36387 -0.62886,-0.62921 -0.0941,-0.18745 0.14795,-0.48055 0,-0.62886 -0.14831,-0.14832 -0.48091,0.14831 -0.62922,0 -0.14831,-0.14832 0.14831,-0.48091 0,-0.62886 -0.14831,-0.14831 -0.53513,0.18745 -0.62886,0 -0.18745,-0.37526 0,-0.83872 0,-1.25808 0,-0.20986 0.14831,-0.48091 0,-0.62886 -0.14831,-0.14831 -0.4809,0.14795 -0.62886,0 -0.29662,-0.29662 0.18745,-0.88318 0,-1.25808 -0.13285,-0.26534 -0.49674,-0.36388 -0.62922,-0.62922 -0.0941,-0.18744 0.18745,-0.53513 0,-0.62886 -0.37489,-0.18745 -0.96145,0.29663 -1.25807,0 -0.29627,-0.29662 0.18781,-0.88282 0,-1.25807 -0.0941,-0.18745 -0.48055,0.14831 -0.62886,0 -0.29663,-0.29627 0.29662,-0.96146 0,-1.25772 -0.14832,-0.14831 -0.48055,0.14831 -0.62886,0 -0.29663,-0.29663 0.29626,-0.96146 0,-1.25808 -0.29663,-0.29662 -0.96146,0.29662 -1.25808,0 -0.14831,-0.14831 0.14831,-0.48055 0,-0.62886 -0.14831,-0.14831 -0.48055,0.14831 -0.62886,0 -0.29662,-0.29662 0.29627,-0.96145 0,-1.25808 -0.14831,-0.14831 -0.44141,0.0941 -0.62922,0 -2.61738,-1.30887 0.6726,0.0441 -0.62886,-1.25807 -0.14831,-0.14832 -0.48054,0.14831 -0.62886,0 -0.14831,-0.14832 0.14832,-0.48055 0,-0.62886 -0.29662,-0.29663 -0.96145,0.29662 -1.25807,0 -0.14832,-0.14832 0.14831,-0.48091 0,-0.62886 -0.14832,-0.14831 -0.48091,0.14795 -0.62886,0 -0.14832,-0.14831 0.14795,-0.48091 0,-0.62922 -0.14832,-0.14831 -0.48091,0.14831 -0.62922,0 -0.14831,-0.14831 0.14831,-0.48055 0,-0.62886 -0.14831,-0.14831 -0.48055,0.14831 -0.62886,0 -0.14831,-0.14831 0.14831,-0.48091 0,-0.62886 -0.14831,-0.14831 -0.48091,0.14795 -0.62886,0 0,-1.67744 0.2095,0.2095 -0.62922,-0.62922 -0.14831,-0.14831 0.14831,-0.48055 0,-0.62886 -0.14831,-0.14831 -0.48055,0.14831 -0.62886,0 -0.14831,-0.14831 0.14831,-0.4809 0,-0.62922 -0.14831,-0.14795 -0.48091,0.14832 -0.62886,0 -0.14831,-0.14795 0.14795,-0.48054 0,-0.62886 -0.14831,-0.14831 -0.4809,0.14832 -0.62922,0 -0.14831,-0.14831 0.14832,-0.48054 0,-0.62885 -0.14831,-0.14832 -0.48054,0.14831 -0.62886,0 -0.14831,-0.14832 0.14832,-0.48091 0,-0.62922 -0.14831,-0.14796 -0.4809,0.14831 -0.62921,0 -0.14796,-0.14796 0.14831,-0.48055 0,-0.62886 -0.14796,-0.14831 -0.48055,0.14831 -0.62886,0 -0.14832,-0.14831 0.14831,-0.48055 0,-0.62886 -0.14832,-0.14831 -0.48055,0.14831 -0.62886,0 -0.14831,-0.14831 0.14831,-0.48091 0,-0.62922 -0.14831,-0.14795 -0.48091,0.14831 -0.62922,0 -0.14795,-0.14795 0.14831,-0.48055 0,-0.62886 -0.14795,-0.14831 -0.48055,0.14831 -0.62886,0 -0.14831,-0.14831 0.14831,-0.48096 0,-0.62886 -0.14831,-0.14831 -0.48055,0.1479 -0.62886,0 -0.14831,-0.14831 0.14831,-0.48091 0,-0.62922 -0.14831,-0.1479 -0.44141,0.0941 -0.62922,0 -0.26498,-0.13249 -0.36352,-0.49637 -0.62886,-0.62886 -0.18745,-0.0941 -0.48054,0.14832 -0.62886,0 -0.14831,-0.14831 0.14832,-0.4809 0,-0.62886 -0.14831,-0.14831 -0.44141,0.0941 -0.62922,0 -0.26498,-0.13285 -0.36351,-0.49637 -0.62885,-0.62921 -0.18745,-0.0941 -0.48091,0.14831 -0.62886,0 -0.14832,-0.14832 0.14795,-0.48055 0,-0.62886 -0.14832,-0.14832 -0.48091,0.14831 -0.62922,0 -0.14831,-0.14832 0.14831,-0.48091 0,-0.62887 -0.29627,-0.29662 -0.96146,0.29627 -1.25772,0 -0.14831,-0.14831 0.14795,-0.4809 0,-0.62921 -0.14831,-0.14831 -0.48091,0.14831 -0.62922,0 -0.14831,-0.14831 0.14831,-0.48055 0,-0.62886 -0.14831,-0.14832 -0.44141,0.0941 -0.62886,0 -0.26534,-0.13249 -0.36388,-0.49637 -0.62886,-0.62886 -0.18781,-0.0941 -0.44177,0.0941 -0.62922,0 -0.26498,-0.13285 -0.36387,-0.49673 -0.62886,-0.62922 -0.18745,-0.0941 -0.4809,0.14831 -0.62921,0 -0.14796,-0.14831 0.14831,-0.48055 0,-0.62886 -0.14796,-0.14831 -0.48055,0.14831 -0.62886,0 -0.14832,-0.14831 0.14831,-0.48091 0,-0.62922 -0.29663,-0.29626 -0.96146,0.29663 -1.25808,0 -1.3011,-1.3011 1.98888,0.0504 -0.62886,-1.25772 -0.3749,-0.18744 -0.96145,0.29627 -1.25808,0 -0.14795,-0.14831 0.14831,-0.4809 0,-0.62922 -0.14795,-0.14795 -0.48055,0.14832 -0.62886,0 -0.14831,-0.14795 0.14831,-0.48054 0,-0.62886 -0.29662,-0.29662 -0.96145,0.29663 -1.25808,0 -0.14832,-0.14831 0.14831,-0.48054 0,-0.62885 -0.14832,-0.14832 -0.48054,0.14831 -0.62885,0 -0.14832,-0.14832 0.14831,-0.48091 0,-0.62922 -0.14832,-0.14796 -0.48091,0.14831 -0.62887,0 -0.14831,-0.14796 0.14796,-0.48055 0,-0.62886 -0.29662,-0.29663 -0.88317,0.18745 -1.25807,0 -0.26535,-0.13249 -0.36388,-0.49637 -0.62886,-0.62886 -0.18781,-0.0941 -0.48091,0.14832 -0.62922,0 -0.14831,-0.14831 0.14831,-0.48091 0,-0.62922 -0.29627,-0.29626 -0.96146,0.29662 -1.25772,0 -0.14831,-0.14831 0.14795,-0.48055 0,-0.62886 -0.29662,-0.29662 -0.88318,0.18745 -1.25808,0 -0.26534,-0.13249 -0.36388,-0.49637 -0.62922,-0.62886 -0.18744,-0.0941 -0.48054,0.14795 -0.62886,0 -0.14831,-0.14831 0.14832,-0.48091 0,-0.62922 -0.29662,-0.29626 -0.96145,0.29663 -1.25807,0 -0.14796,-0.14831 0.14831,-0.48054 0,-0.628861 -0.31443,-0.314425 -1.57215,0.314431 -1.88694,0 -0.14795,-0.148309 0.14831,-0.48089 0,-0.628875 -0.29627,-0.296613 -0.96146,0.296289 -1.25772,0 -0.14831,-0.148309 0.1479,-0.480884 0,-0.629187 -0.3144,-0.314437 -1.57251,0.314438 -1.88694,0 -0.83871,-0.838694 1.04822,-0.628887 -0.62922,-0.628887 -0.20949,0 -0.41936,0 -0.62885,0 -0.20986,0 -0.48091,0.148303 -0.62886,0 -0.14832,-0.1483 0.14795,-0.480855 0,-0.628905 -0.29663,-0.296593 -0.88318,0.187479 -1.25808,0 -0.26534,-0.132771 -0.36388,-0.496605 -0.62886,-0.62914 -0.37526,-0.187481 -0.96142,0.296577 -1.25808,0 -0.14831,-0.148283 0.14831,-0.48063 0,-0.628911 -0.15131,-0.151335 -2.36449,0.151329 -2.51615,0 -0.14796,-0.148288 0.14831,-0.480829 0,-0.6291 -0.14796,-0.148118 -0.419,0 -0.62886,0 -0.2095,0 -0.41936,0 -0.62886,0 -2.306322,0 -4.612667,0 -6.918929,0 -1.467648,0 -2.935263,0 -4.402911,0 -0.209645,0 -0.480729,-0.148118 -0.628969,0 -0.148276,0.148271 0.14824,0.480812 0,0.6291 -0.148276,0.148281 -0.419323,0 -0.629001,0 -1.048292,0 -2.096617,0 -3.144909,0 -0.209681,0 -0.480726,-0.148288 -0.629004,0 -0.14824,0.148281 0.148278,0.480628 0,0.628911 -0.14824,0.148289 -0.419324,0 -0.628966,0 -1.467651,0 -2.935263,0 -4.402914,0 -0.28325,0 -1.695529,-0.0957 -1.886936,0 -0.265239,0.132535 -0.363806,0.496369 -0.629005,0.62914 -0.227471,0.113764 -2.707449,0 -3.144905,0 -0.209681,0 -0.480729,-0.148285 -0.629005,0 -0.14824,0.14805 0.148276,0.480605 0,0.628905 -0.02856,0.028 -2.848339,0 -3.144906,0 -1.475098,0 0.29648,-0.1483 -1.25797,0.628887 -0.249417,0.124689 -1.758399,-0.128399 -1.886974,0 -0.14824,0.148303 0.148276,0.480878 0,0.629187 -0.296516,0.296289 -0.961454,-0.296613 -1.25797,0 -0.14824,0.147985 0.148235,0.480566 0,0.628875 -0.14824,0.148321 -0.480726,-0.148309 -0.628966,0 -0.148276,0.148321 0.14824,0.480551 0,0.628861 -0.148276,0.14831 -0.480727,-0.14831 -0.629004,0 -0.14824,0.14831 0.148277,0.48091 0,0.62922 -0.14824,0.14795 -0.441445,-0.0941 -0.628966,0 -2.617708,1.30887 0.672383,-0.0441 -0.629004,1.25772 -0.14824,0.14831 -0.480726,-0.14831 -0.628966,0 -0.148276,0.14831 0.14824,0.48091 0,0.62922 -0.148276,0.14832 -0.480726,-0.14831 -0.629004,0 -0.14824,0.14832 0.148278,0.48055 0,0.62886 -0.14824,0.14831 -0.480726,-0.14831 -0.628966,0 -0.148276,0.14831 0.14824,0.4809 0,0.62886 -0.148276,0.14831 -0.480767,-0.14796 -0.629004,0 -0.14824,0.14831 0.148237,0.4809 0,0.62922 -0.14824,0.14831 -0.480726,-0.14832 -0.628966,0 -0.148276,0.14831 0.14824,0.48054 0,0.62885 -0.148276,0.14832 -0.480725,-0.14831 -0.629004,0 -0.14824,0.14832 0.148279,0.48091 0,0.62886 -0.14824,0.14832 -0.480726,-0.14795 -0.628966,0 -0.148276,0.14832 0.14824,0.48091 0,0.62922 -0.148276,0.14831 -0.480766,-0.14831 -0.629004,0 -0.14824,0.14831 0.148238,0.48055 0,0.62886 -0.14824,0.14831 -0.480726,-0.14831 -0.628966,0 -0.148276,0.14831 0.14824,0.48091 0,0.62886 -0.148276,0.14831 -0.480724,-0.14795 -0.629004,0 -0.14824,0.14831 0.09372,0.44177 0,0.62922 -1.308835,2.61775 0.04338,-0.6726 -1.25797,0.62886 -0.14824,0.14831 0.148239,0.48091 0,0.62922 -0.14824,0.14795 -0.480726,-0.14831 -0.628966,0 -0.148276,0.14795 0.187518,0.53513 0,0.62886 -0.375078,0.18745 -0.838647,0 -1.25797,0 -0.209681,0 -0.480765,-0.14832 -0.629005,0 -0.148239,0.14831 0.14824,0.48055 0,0.62886 -0.148239,0.14831 -0.419323,0 -0.628965,0 0,0.20986 0.09372,0.44141 0,0.62921 -1.308874,2.61739 0.04338,-0.67259 -1.25797,0.62887 -0.148279,0.14831 0.14824,0.48054 0,0.62886 -0.148279,0.14831 -0.480765,-0.14832 -0.629005,0 -0.14824,0.14831 0.14824,0.4809 0,0.62921 -0.14824,0.14796 -0.480725,-0.14831 -0.628968,0 -0.148276,0.14796 0.148243,0.48055 0,0.62886 -0.148276,0.14832 -0.480762,-0.14831 -0.629002,0 -0.14824,0.14832 0.14824,0.48096 0,0.62886 -0.14824,0.14831 -0.480725,-0.1479 -0.628968,0 -0.148276,0.14831 0.148243,0.48091 0,0.62922 -0.148276,0.1479 -0.480762,-0.14831 -0.629002,0 -0.14824,0.1479 0.14824,0.48055 0,0.62886 -0.14824,0.14831 -0.480725,-0.14831 -0.628968,0 -0.148276,0.14831 0.148243,0.48091 0,0.62886 -0.148276,0.14831 -0.480762,-0.14795 -0.629002,0 -0.14824,0.14831 0.09373,0.44178 0,0.62922 -0.132599,0.26498 -0.496369,0.36351 -0.628968,0.62886 -0.09372,0.18744 0.14824,0.4809 0,0.62886 -0.148276,0.14831 -0.480762,-0.14796 -0.629002,0 -0.14824,0.14831 0.14824,0.4809 0,0.62922 -0.14824,0.14831 -0.480728,-0.14832 -0.628968,0 -0.296516,0.29626 0.296482,0.96145 0,1.25771 -0.148276,0.14832 -0.480762,-0.14795 -0.629002,0 -0.14824,0.14832 0.14824,0.48091 0,0.62922 -0.14824,0.14831 -0.480728,-0.14831 -0.628968,0 -0.148276,0.14831 0.14824,0.48055 0,0.62886 -0.148276,0.14831 -0.480762,-0.14831 -0.629002,0 -0.314501,0.31443 0.314501,1.57251 0,1.88694 -0.14824,0.14831 -0.480728,-0.14831 -0.628968,0 -0.296516,0.29662 0.29648,0.96145 0,1.25808 -0.148276,0.14831 -0.480762,-0.14832 -0.629002,0 -0.14824,0.14831 0,0.41935 0,0.62886 0,1.67743 0,3.35451 0,5.03195 0,2.51579 0,5.03195 0,7.54775 0,0.20985 0,0.41936 0,0.62921 0,0.20951 -0.14824,0.48055 0,0.62886 0.14824,0.14832 0.480726,-0.14831 0.629002,0 0.14824,0.14832 0,0.41936 0,0.62886 0,0.29668 -0.02856,3.11647 0,3.14502 0.14824,0.14831 0.480728,-0.14831 0.628968,0 0.151343,0.15131 -0.151343,2.36449 0,2.51579 0.14824,0.14832 0.480726,-0.14795 0.629002,0 0.314467,0.31479 -0.314501,1.57251 0,1.8873 0.14824,0.14796 0.480728,-0.14831 0.628968,0 0.314501,0.31443 -0.314501,1.57215 0,1.88694 0.14824,0.14795 0.480726,-0.14831 0.629002,0 0.314467,0.31443 -0.314501,1.57215 0,1.88694 0.14824,0.14795 0.480728,-0.14831 0.628968,0 0.314501,0.31443 -0.314501,1.5721 0,1.88693 0.14824,0.14831 0.480726,-0.14831 0.629002,0 0.296482,0.29627 -0.296516,0.96146 0,1.25772 0.14824,0.14831 0.480728,-0.14795 0.628968,0 0.296516,0.29662 -0.187521,0.88318 0,1.25808 0.1326,0.26534 0.496405,0.36388 0.629002,0.62886 0.170588,0.34146 -0.17211,2.34397 0,2.51616 0.148243,0.14831 0.480728,-0.14832 0.628968,0 0.296516,0.29663 -0.187521,0.88282 0,1.25807 0.1326,0.26498 0.496405,0.36352 0.629002,0.62886 0.09372,0.18745 -0.148276,0.48055 0,0.62886 0.148243,0.14831 0.480728,-0.14831 0.628968,0 0.314501,0.31443 -0.314501,1.57251 0,1.88694 0.14824,0.14831 0.480726,-0.14831 0.629002,0 0.148243,0.14831 -0.148276,0.48091 0,0.62922 0.148243,0.14795 0.480728,-0.14831 0.628968,0 0.14824,0.14795 -0.14824,0.48054 0,0.62886 0.14824,0.14831 0.480726,-0.14832 0.629005,0 0.14824,0.14831 -0.148279,0.48093 0,0.62886 0.14824,0.14831 0.480726,-0.14793 0.628965,0 0.296516,0.29662 -0.296515,0.96145 0,1.25807 0.14824,0.14832 0.480726,-0.14831 0.629005,0 0.14824,0.14832 -0.148279,0.48091 0,0.62886 1.301387,1.30146 -0.0508,-1.98852 1.25797,0.62922 0.09372,0.18745 -0.148276,0.48055 0,0.62886 0.14824,0.14831 0.480726,-0.14831 0.628966,0 0.148239,0.14831 -0.09373,0.44141 0,0.62886 0.132599,0.26534 0.496405,0.36388 0.629004,0.62922 0.09372,0.18745 -0.148276,0.48055 0,0.62886 0.14824,0.14831 0.480726,-0.14831 0.628966,0 0.148239,0.14831 -0.14824,0.4809 0,0.62927 0.148239,0.1479 0.480728,-0.14837 0.629004,0 1.301387,1.30105 -1.988704,-0.0504 0.628966,1.25766 0.187521,0.0941 0.480728,-0.14831 0.629004,0 0.29648,0.29663 -0.296516,0.96146 0,1.25808 0.14824,0.14831 0.480726,-0.14831 0.628966,0 0.148238,0.14831 -0.14824,0.48055 0,0.62886 0.148238,0.14831 0.480728,-0.14831 0.629004,0 0.14824,0.14831 -0.148276,0.48091 0,0.62922 0.14824,0.14795 0.480726,-0.14831 0.628966,0 0.296516,0.29626 -0.296516,0.96145 0,1.25772 0.148279,0.14831 0.480728,-0.14831 0.629004,0 0.14824,0.14831 -0.148276,0.48091 0,0.62922 0.14824,0.14795 0.480726,-0.14831 0.628966,0 0.148237,0.14795 -0.14824,0.48054 0,0.62886 0.148237,0.14831 0.480728,-0.14832 0.629004,0 0.14824,0.14831 -0.148276,0.48051 0,0.62886 0.14824,0.14831 0.480726,-0.14835 0.628966,0 0.148278,0.14831 -0.14824,0.4809 0,0.62921 0.148278,0.14832 0.480728,-0.14831 0.629004,0 0.29648,0.29627 -0.296516,0.96146 0,1.25772 0.14824,0.14832 0.441445,-0.0941 0.628966,0 0.530395,0.26534 0.727575,0.99274 1.25797,1.25808 0.187521,0.0941 0.480728,-0.14831 0.629004,0 0.14824,0.14831 -0.148276,0.48091 0,0.62886 0.14824,0.14831 0.480726,-0.14795 0.628966,0 0.148235,0.14831 -0.14824,0.48091 0,0.62922 0.296516,0.29626 0.961454,-0.29663 1.25797,0 0.148276,0.14831 -0.14824,0.48055 0,0.62886 0.148276,0.14831 0.441447,-0.0941 0.629004,0 0.265196,0.13249 0.36377,0.49637 0.628966,0.62885 0.249382,0.12467 1.758362,-0.12835 1.886974,0 0.14824,0.14832 -0.148275,0.48091 0,0.62923 0.29648,0.29662 0.961455,-0.29663 1.257971,0 0.148239,0.14831 -0.148276,0.48054 0,0.62886 0.128574,0.12872 1.637556,-0.12469 1.886935,0 0.265199,0.13246 0.363809,0.49636 0.629005,0.62921 0.341208,0.17056 2.34383,-0.17218 2.51594,0 0.14824,0.14796 -0.148276,0.48055 0,0.62886 0.314465,0.31443 1.572435,-0.31443 1.886935,0 0.148276,0.14832 -0.148239,0.48055 0,0.62886 0.296516,0.29663 0.882931,-0.18745 1.257971,0 0.265198,0.13285 0.363764,0.49637 0.629004,0.62922 0.375042,0.18745 0.961454,-0.29662 1.25797,0 0.14824,0.14795 -0.148276,0.48055 0,0.62886 0.128574,0.12872 1.637556,-0.12469 1.886936,0 0.265198,0.13249 0.363805,0.49637 0.629004,0.62886 0.375042,0.1874 0.961454,-0.29627 1.25797,0 0.14824,0.14831 -0.148276,0.48091 0,0.62922 0.314465,0.31443 1.572435,-0.31479 1.886938,0 0.148276,0.14795 -0.148242,0.48055 0,0.62886 0.15134,0.1513 2.364597,-0.15131 2.515941,0 0.148275,0.14831 -0.14824,0.48092 0,0.62886 0.151338,0.1513 2.364596,-0.15131 2.51594,0 0.148276,0.14831 -0.14824,0.48091 0,0.62922 0.296516,0.29626 0.882927,-0.18781 1.25797,0 0.265196,0.13249 0.363805,0.49636 0.629001,0.62885 0.503197,0.25162 1.383742,-0.25161 1.886939,0 0.265196,0.1325 0.363805,0.49637 0.629002,0.62887 0.375042,0.1878 0.961454,-0.29627 1.257968,0 0.148242,0.14831 -0.148274,0.4809 0,0.62921 0.314459,0.31443 1.57251,-0.31443 1.88694,0 0.14831,0.14831 -0.14831,0.48055 0,0.62886 0.12872,0.12872 1.63756,-0.12469 1.88694,0 0.26534,0.13249 0.36387,0.49637 0.62886,0.62886 0.37525,0.18781 0.88318,-0.18745 1.25807,0 0.26534,0.13285 0.36388,0.49637 0.62886,0.62922 0.37526,0.18745 0.88318,-0.18745 1.25808,0 0.26534,0.13249 0.36388,0.49637 0.62922,0.62886 0.3411,0.17055 2.34361,-0.17218 2.5158,0 0.14831,0.14831 -0.14832,0.48091 0,0.62926 0.1513,0.15126 2.36449,-0.15171 2.51579,0 0.14831,0.14791 -0.1479,0.48051 0,0.62882 0.0208,0.0208 1.73462,0 1.88694,0 0.20986,0 0.41936,0 0.62922,0 0.2095,0 0.48054,-0.14831 0.62886,0 0.14831,0.14831 -0.14832,0.48055 0,0.62886 0.1513,0.1513 2.36449,-0.15131 2.51579,0 0.14831,0.14831 -0.14795,0.4809 0,0.62922 0.15167,0.1513 2.36485,-0.15167 2.51616,0 0.14831,0.14795 -0.14831,0.48054 0,0.62886 0.19468,0.19467 2.94998,-0.19468 3.14501,0 0.14796,0.14831 -0.14831,0.48054 0,0.62885 0.19268,0.19304 2.9503,-0.19435 3.14466,0 0.14831,0.14832 -0.14795,0.48091 0,0.62922 0.19504,0.19468 2.95034,-0.19503 3.14502,0 0.14831,0.14796 -0.14832,0.48055 0,0.62886 0.14831,0.14831 0.41935,0 0.62886,0 0.20985,0 0.41935,0 0.62921,0 1.04822,0 2.09644,0 3.14502,0 0.2095,0 0.48055,-0.14831 0.62886,0 0.14831,0.14831 -0.14831,0.48055 0,0.62886 0.14831,0.14831 0.41936,0 0.62886,0 1.25808,0 2.51615,0 3.77387,0 0.20986,0 0.48091,-0.14831 0.62922,0 0.83872,0.83872 -1.04858,0.62922 0.62886,0.62922" style="fill: none; stroke: rgb(255, 194, 0); stroke-width: 3.111; stroke-linecap: butt; stroke-linejoin: miter; stroke-opacity: 1; stroke-miterlimit: 4;" class="PyauQQzP_0"></path>
  </g>
<style data-made-with="vivus-instant">.PyauQQzP_0{stroke-dasharray:805 807;stroke-dashoffset:806;animation:PyauQQzP_draw_0 9400ms ease-out 0ms infinite,PyauQQzP_fade 9400ms linear 0ms infinite;}@keyframes PyauQQzP_draw{100%{stroke-dashoffset:0;}}@keyframes PyauQQzP_fade{0%{stroke-opacity:1;}95.74468085106383%{stroke-opacity:1;}100%{stroke-opacity:0;}}@keyframes PyauQQzP_draw_0{0%{stroke-dashoffset: 806}35.46099290780141%{ stroke-dashoffset: 0;}100%{ stroke-dashoffset: 0;}}</style></svg>
